HIERARCHY
ROOT Hips
{
	OFFSET 0.000000 97.167313 0.000000
	CHANNELS 6 Xposition Yposition Zposition Xrotation Yrotation Zrotation
	JOINT Spine
	{
		OFFSET 0.000000 13.784798 0.064400
		CHANNELS 3 Xrotation Yrotation Zrotation
		JOINT Spine1
		{
			OFFSET 0.000000 12.037903 0.404700
			CHANNELS 3 Xrotation Yrotation Zrotation
			JOINT Spine2
			{
				OFFSET 0.000000 17.795601 0.420200
				CHANNELS 3 Xrotation Yrotation Zrotation
				JOINT Neck
				{
					OFFSET 0.000000 39.131302 11.954600
					CHANNELS 3 Xrotation Yrotation Zrotation
					JOINT Head
					{
						OFFSET 0.000000 14.456192 15.627699
						CHANNELS 3 Xrotation Yrotation Zrotation
						JOINT HeadTop_End
						{
							OFFSET 0.000000 15.703506 7.603401
							CHANNELS 3 Xrotation Yrotation Zrotation
							End Site
							{
								OFFSET 0.000000 17.447403 0.000000
							}
						}
					}
				}
				JOINT LeftShoulder
				{
					OFFSET 17.399500 24.608795 1.168800
					CHANNELS 3 Xrotation Yrotation Zrotation
					JOINT LeftArm
					{
						OFFSET 18.980635 5.765305 1.818600
						CHANNELS 3 Xrotation Yrotation Zrotation
						JOINT LeftForeArm
						{
							OFFSET 49.290169 0.000000 0.000000
							CHANNELS 3 Xrotation Yrotation Zrotation
							JOINT LeftHand
							{
								OFFSET 31.562012 0.000000 0.000000
								CHANNELS 3 Xrotation Yrotation Zrotation
								JOINT LeftHandThumb1
								{
									OFFSET 6.133995 -4.388519 7.076070
									CHANNELS 3 Xrotation Yrotation Zrotation
									JOINT LeftHandThumb2
									{
										OFFSET 6.037666 -3.485840 3.485847
										CHANNELS 3 Xrotation Yrotation Zrotation
										JOINT LeftHandThumb3
										{
											OFFSET 6.496506 -3.750763 3.750761
											CHANNELS 3 Xrotation Yrotation Zrotation
											JOINT LeftHandThumb4
											{
												OFFSET 5.616882 -3.242905 3.242910
												CHANNELS 3 Xrotation Yrotation Zrotation
												End Site
												{
													OFFSET -1.254608 7.132141 0.375429
												}
											}
										}
									}
								}
								JOINT LeftHandPinky1
								{
									OFFSET 18.920792 -0.453171 -11.426712
									CHANNELS 3 Xrotation Yrotation Zrotation
									JOINT LeftHandPinky2
									{
										OFFSET 4.919586 0.000000 0.000000
										CHANNELS 3 Xrotation Yrotation Zrotation
										JOINT LeftHandPinky3
										{
											OFFSET 5.233047 0.000000 0.000000
											CHANNELS 3 Xrotation Yrotation Zrotation
											JOINT LeftHandPinky4
											{
												OFFSET 5.571716 0.000000 0.000000
												CHANNELS 3 Xrotation Yrotation Zrotation
												End Site
												{
													OFFSET -3.459808 4.342407 -0.466164
												}
											}
										}
									}
								}
								JOINT LeftHandRing1
								{
									OFFSET 22.726120 -0.094986 -6.500475
									CHANNELS 3 Xrotation Yrotation Zrotation
									JOINT LeftHandRing2
									{
										OFFSET 6.408615 0.000000 0.000000
										CHANNELS 3 Xrotation Yrotation Zrotation
										JOINT LeftHandRing3
										{
											OFFSET 6.150223 0.000000 0.000000
											CHANNELS 3 Xrotation Yrotation Zrotation
											JOINT LeftHandRing4
											{
												OFFSET 6.145386 0.000000 0.000000
												CHANNELS 3 Xrotation Yrotation Zrotation
												End Site
												{
													OFFSET -3.671402 4.923981 -0.202372
												}
											}
										}
									}
								}
								JOINT LeftHandMiddle1
								{
									OFFSET 23.373947 0.000000 0.000001
									CHANNELS 3 Xrotation Yrotation Zrotation
									JOINT LeftHandMiddle2
									{
										OFFSET 6.996567 0.000000 0.000000
										CHANNELS 3 Xrotation Yrotation Zrotation
										JOINT LeftHandMiddle3
										{
											OFFSET 7.015945 0.000000 0.000000
											CHANNELS 3 Xrotation Yrotation Zrotation
											JOINT LeftHandMiddle4
											{
												OFFSET 7.721573 0.000000 0.000000
												CHANNELS 3 Xrotation Yrotation Zrotation
												End Site
												{
													OFFSET -4.651108 6.158463 0.251582
												}
											}
										}
									}
								}
								JOINT LeftHandIndex1
								{
									OFFSET 21.310577 -0.490082 6.209344
									CHANNELS 3 Xrotation Yrotation Zrotation
									JOINT LeftHandIndex2
									{
										OFFSET 7.536453 0.000000 0.000000
										CHANNELS 3 Xrotation Yrotation Zrotation
										JOINT LeftHandIndex3
										{
											OFFSET 7.512344 0.000000 0.000000
											CHANNELS 3 Xrotation Yrotation Zrotation
											JOINT LeftHandIndex4
											{
												OFFSET 10.212402 0.000000 0.000001
												CHANNELS 3 Xrotation Yrotation Zrotation
												End Site
												{
													OFFSET -5.180801 8.690506 1.388433
												}
											}
										}
									}
								}
							}
						}
					}
				}
				JOINT RightShoulder
				{
					OFFSET -17.399500 24.608795 1.168800
					CHANNELS 3 Xrotation Yrotation Zrotation
					JOINT RightArm
					{
						OFFSET -18.980635 5.765305 1.818600
						CHANNELS 3 Xrotation Yrotation Zrotation
						JOINT RightForeArm
						{
							OFFSET -49.290169 0.000000 0.000000
							CHANNELS 3 Xrotation Yrotation Zrotation
							JOINT RightHand
							{
								OFFSET -31.562012 0.000000 0.000000
								CHANNELS 3 Xrotation Yrotation Zrotation
								JOINT RightHandThumb1
								{
									OFFSET -6.133995 -4.388519 7.076070
									CHANNELS 3 Xrotation Yrotation Zrotation
									JOINT RightHandThumb2
									{
										OFFSET -6.037666 -3.485840 3.485847
										CHANNELS 3 Xrotation Yrotation Zrotation
										JOINT RightHandThumb3
										{
											OFFSET -6.496506 -3.750763 3.750761
											CHANNELS 3 Xrotation Yrotation Zrotation
											JOINT RightHandThumb4
											{
												OFFSET -5.616882 -3.242905 3.242910
												CHANNELS 3 Xrotation Yrotation Zrotation
												End Site
												{
													OFFSET 1.254608 7.132141 0.375429
												}
											}
										}
									}
								}
								JOINT RightHandIndex1
								{
									OFFSET -21.310577 -0.490082 6.209344
									CHANNELS 3 Xrotation Yrotation Zrotation
									JOINT RightHandIndex2
									{
										OFFSET -7.536453 0.000000 0.000000
										CHANNELS 3 Xrotation Yrotation Zrotation
										JOINT RightHandIndex3
										{
											OFFSET -7.512344 0.000000 0.000000
											CHANNELS 3 Xrotation Yrotation Zrotation
											JOINT RightHandIndex4
											{
												OFFSET -10.212402 0.000000 0.000001
												CHANNELS 3 Xrotation Yrotation Zrotation
												End Site
												{
													OFFSET 5.180801 8.690506 1.388433
												}
											}
										}
									}
								}
								JOINT RightHandMiddle1
								{
									OFFSET -23.373947 0.000000 0.000001
									CHANNELS 3 Xrotation Yrotation Zrotation
									JOINT RightHandMiddle2
									{
										OFFSET -6.996567 0.000000 0.000000
										CHANNELS 3 Xrotation Yrotation Zrotation
										JOINT RightHandMiddle3
										{
											OFFSET -7.015945 0.000000 0.000000
											CHANNELS 3 Xrotation Yrotation Zrotation
											JOINT RightHandMiddle4
											{
												OFFSET -7.721573 0.000000 0.000000
												CHANNELS 3 Xrotation Yrotation Zrotation
												End Site
												{
													OFFSET 4.651108 6.158463 0.251582
												}
											}
										}
									}
								}
								JOINT RightHandRing1
								{
									OFFSET -22.726120 -0.094986 -6.500475
									CHANNELS 3 Xrotation Yrotation Zrotation
									JOINT RightHandRing2
									{
										OFFSET -6.408615 0.000000 0.000000
										CHANNELS 3 Xrotation Yrotation Zrotation
										JOINT RightHandRing3
										{
											OFFSET -6.150223 0.000000 0.000000
											CHANNELS 3 Xrotation Yrotation Zrotation
											JOINT RightHandRing4
											{
												OFFSET -6.145386 0.000000 0.000000
												CHANNELS 3 Xrotation Yrotation Zrotation
												End Site
												{
													OFFSET 3.671402 4.923981 -0.202372
												}
											}
										}
									}
								}
								JOINT RightHandPinky1
								{
									OFFSET -18.920792 -0.453171 -11.426712
									CHANNELS 3 Xrotation Yrotation Zrotation
									JOINT RightHandPinky2
									{
										OFFSET -4.919586 0.000000 0.000000
										CHANNELS 3 Xrotation Yrotation Zrotation
										JOINT RightHandPinky3
										{
											OFFSET -5.233047 0.000000 0.000000
											CHANNELS 3 Xrotation Yrotation Zrotation
											JOINT RightHandPinky4
											{
												OFFSET -5.571716 0.000000 0.000000
												CHANNELS 3 Xrotation Yrotation Zrotation
												End Site
												{
													OFFSET 3.459808 4.342407 -0.466164
												}
											}
										}
									}
								}
							}
						}
					}
				}
			}
		}
	}
	JOINT LeftUpLeg
	{
		OFFSET 19.899099 -7.885101 -3.429500
		CHANNELS 3 Xrotation Yrotation Zrotation
		JOINT LeftLeg
		{
			OFFSET 1.745560 -36.997807 10.304700
			CHANNELS 3 Xrotation Yrotation Zrotation
			JOINT LeftFoot
			{
				OFFSET -1.745558 -29.803308 -13.615400
				CHANNELS 3 Xrotation Yrotation Zrotation
				JOINT LeftToeBase
				{
					OFFSET 1.181900 -18.539904 15.226099
					CHANNELS 3 Xrotation Yrotation Zrotation
					JOINT LeftToe_End
					{
						OFFSET -0.863701 1.402801 16.534700
						CHANNELS 3 Xrotation Yrotation Zrotation
						End Site
						{
							OFFSET 0.000000 16.616566 0.000000
						}
					}
				}
			}
		}
	}
	JOINT RightUpLeg
	{
		OFFSET -19.899099 -7.885101 -3.429500
		CHANNELS 3 Xrotation Yrotation Zrotation
		JOINT RightLeg
		{
			OFFSET -1.745560 -36.997807 10.304700
			CHANNELS 3 Xrotation Yrotation Zrotation
			JOINT RightFoot
			{
				OFFSET 1.745558 -29.803308 -13.615400
				CHANNELS 3 Xrotation Yrotation Zrotation
				JOINT RightToeBase
				{
					OFFSET -1.181900 -18.539904 15.226099
					CHANNELS 3 Xrotation Yrotation Zrotation
					JOINT RightToe_End
					{
						OFFSET 0.863701 1.402801 16.534700
						CHANNELS 3 Xrotation Yrotation Zrotation
						End Site
						{
							OFFSET 0.000000 16.616566 0.000000
						}
					}
				}
			}
		}
	}
}
MOTION
Frames: 4
Frame Time: 0.033333
0.677154 86.281288 108.659836 1.819574 9.299185 -4.151502 -3.517957 -4.258100 -1.897449 -1.802545 -3.851915 3.553346 -1.699862 -3.899716 3.638746 1.578199 -1.389820 0.192652 8.138540 -0.718530 -0.639138 -0.000001 0.000000 -0.000000 0.668508 -5.603047 -2.229885 -5.527576 -14.214042 -72.748700 16.502970 -19.244799 4.351302 -6.088507 -0.328101 4.054466 10.570665 -3.299921 24.987062 -5.704441 25.743538 -7.048870 -6.825214 3.445437 -2.703693 -0.000000 -0.000001 -0.000003 -6.474397 11.331221 -25.381774 8.739067 2.585706 -31.222400 5.272731 2.619263 -14.082540 0.000004 0.000000 -0.000002 -4.971198 10.109733 -15.518649 4.008731 4.056498 -38.005891 2.105004 3.144361 -20.340973 -0.000003 -0.000004 0.000005 -1.978501 5.666949 -17.753195 0.265539 5.081826 -31.107441 -0.642278 1.125171 -15.828400 -0.000001 -0.000001 0.000004 2.371999 3.635889 -8.952602 -2.140049 2.443018 -19.148157 -1.875864 4.851162 -14.929959 0.000001 0.000003 -0.000001 0.726542 -7.437258 12.019680 11.508473 -20.433476 63.954674 17.445895 4.226484 -4.797269 0.190040 -5.673641 3.376844 15.626930 -1.234155 -16.879812 -6.343180 -24.737564 7.037614 -11.344896 5.369949 5.048508 -0.000002 -0.000002 -0.000000 2.247947 -2.298816 4.747579 -2.412665 -2.055192 16.814934 -2.126602 -4.434187 12.588674 -0.000001 0.000001 -0.000001 -1.992221 -5.682324 8.742429 -0.043654 -4.728394 23.950594 -0.859434 -0.706020 8.694168 0.000001 -0.000001 -0.000006 -4.984342 -10.118314 7.760553 3.657981 -3.729740 32.104990 1.853644 -2.743892 14.451036 0.000001 0.000002 -0.000001 -6.470304 -11.329791 16.980334 10.364304 -2.227026 30.399297 6.206731 -2.648729 10.859839 -0.000003 -0.000004 0.000005 9.223794 22.027285 -0.690862 19.364609 -34.167868 -0.742708 52.104009 -7.983440 -6.698043 -75.770369 -17.399842 26.104438 -0.000000 -0.000000 -0.000000 -36.645095 -12.267394 13.850242 29.780800 -8.482031 -2.102534 30.261635 2.917242 -14.970154 -28.710038 4.114962 -6.777426 -0.000000 -0.000000 -0.000001 
0.998126 85.334328 111.414482 0.358185 9.733449 -5.944487 -0.374270 -3.727074 0.120971 -2.711186 -3.455727 3.468957 -2.640326 -3.400045 3.623244 1.585242 -2.095514 0.296914 8.291155 -1.421517 -0.323112 -0.000000 0.000000 0.000000 0.647954 -5.689177 -2.687924 -5.639067 -9.373964 -72.491181 16.854433 -17.570653 1.699635 -0.124356 0.109705 3.326311 10.567541 -3.193243 25.011649 -5.644512 25.835739 -7.050470 -6.778237 3.541037 -2.681941 0.000000 -0.000000 -0.000003 -6.474127 11.332909 -25.557043 8.738927 2.591704 -31.397731 5.271292 2.622220 -14.257890 0.000002 0.000000 -0.000002 -4.971959 10.110089 -15.718062 4.008588 4.056627 -38.205486 2.106063 3.144536 -20.540594 -0.000001 -0.000005 0.000003 -1.976969 5.667384 -17.982274 0.265678 5.082926 -31.336406 -0.641919 1.125385 -16.057413 0.000000 0.000000 0.000004 2.370752 3.636045 -9.250927 -2.140083 2.442996 -19.446563 -1.876016 4.852830 -15.228259 -0.000003 0.000003 0.000001 0.797831 -7.765824 12.752446 10.695397 -18.611106 63.608917 15.151958 6.075667 -4.150625 0.171703 -3.690311 3.502135 15.612281 -1.107645 -16.850775 -6.402286 -24.646492 7.036707 -11.395938 5.463999 5.078006 0.000001 -0.000001 -0.000000 2.247950 -2.298815 4.747579 -2.344655 -2.153103 16.347494 -2.065860 -4.536929 12.123519 -0.000001 0.000001 -0.000003 -1.992221 -5.682324 8.742423 0.035425 -4.816128 23.487294 -0.805944 -0.812382 8.224971 -0.000001 0.000000 -0.000004 -4.984341 -10.118309 7.760555 3.748675 -3.805366 31.641125 1.917676 -2.844311 13.984212 -0.000001 0.000001 -0.000003 -6.470300 -11.329784 16.980327 10.452582 -2.305371 29.932737 6.264323 -2.753034 10.392632 -0.000000 0.000000 0.000000 2.143784 16.774960 2.186186 31.394172 -31.796703 -0.022839 52.428853 -7.794816 -8.264283 -69.424420 -13.621728 30.944039 0.000001 0.000001 -0.000000 -32.982919 -14.956366 15.789946 33.185256 -8.223454 -2.306585 25.321996 4.009668 -15.422171 -28.871705 4.375583 -7.371841 -0.000000 0.000001 -0.000000 
1.397305 84.909241 114.237404 -1.138877 9.965804 -7.415729 3.236842 -2.898721 1.297020 -3.617500 -3.025296 3.692204 -3.560236 -2.853352 3.896874 1.621670 -2.868154 0.513640 7.923845 -2.102534 -0.219728 -0.000000 -0.000000 -0.000000 0.667683 -5.894369 -2.974304 -5.885714 -4.083462 -72.355527 22.639526 -16.101937 1.673554 -0.123567 -0.044046 3.567379 10.564564 -3.099898 25.033557 -5.592058 25.916523 -7.051909 -6.738095 3.625050 -2.663359 0.000001 -0.000000 -0.000002 -6.473617 11.334386 -25.710314 8.741174 2.597165 -31.551028 5.270301 2.624831 -14.411146 0.000000 0.000001 -0.000000 -4.972606 10.110399 -15.892342 4.008486 4.056989 -38.379868 2.106965 3.144294 -20.715081 0.000000 0.000001 0.000005 -1.975585 5.667395 -18.182466 0.265782 5.083809 -31.536469 -0.641566 1.125578 -16.257496 -0.000000 0.000001 0.000006 2.369700 3.636167 -9.511604 -2.140060 2.442881 -19.707362 -1.876168 4.854228 -15.488962 -0.000003 0.000003 0.000002 0.726449 -7.324037 12.077624 9.554622 -16.088835 64.820141 17.807121 8.233176 -4.747971 0.152170 -4.313879 2.978790 15.599472 -0.997102 -16.825387 -6.454022 -24.566328 7.036215 -11.440619 5.546163 5.103879 0.000001 0.000001 0.000001 2.247947 -2.298815 4.747580 -2.286348 -2.239709 15.939259 -2.013928 -4.627684 11.717167 -0.000002 -0.000001 0.000001 -1.992222 -5.682323 8.742424 0.104678 -4.895257 23.082705 -0.760491 -0.906237 7.815143 -0.000000 -0.000002 -0.000004 -4.984343 -10.118309 7.760553 3.828190 -3.873707 31.235893 1.972491 -2.933024 13.576467 -0.000001 -0.000000 -0.000005 -6.470306 -11.329787 16.980327 10.529919 -2.376055 29.525484 6.313460 -2.845168 9.984558 0.000000 -0.000001 0.000000 -7.392502 9.681891 4.383125 48.928975 -25.200454 1.088728 45.976387 -6.169271 -5.124174 -53.820494 3.236871 15.631211 -0.000001 -0.000001 0.000000 -28.271261 -17.091587 17.657560 35.049655 -7.416813 -2.353019 21.120347 4.881370 -15.906775 -28.929604 4.526756 -7.673383 -0.000001 0.000000 -0.000000 
1.972813 85.148613 117.435616 -1.837484 9.523341 -8.088919 5.096846 -2.092657 1.087470 -3.963219 -2.547943 4.187000 -3.903934 -2.322208 4.383852 2.062868 -3.357098 0.513431 7.178897 -2.569734 -0.119152 -0.000000 -0.000000 0.000000 0.645706 -6.033332 -3.561774 -5.214023 -0.485793 -71.777044 23.497900 -15.001163 1.478347 -0.118766 -0.279128 4.286874 10.562064 -3.021197 25.051910 -5.547854 25.984358 -7.053304 -6.705277 3.696469 -2.648150 -0.000000 -0.000000 -0.000002 -6.473622 11.335594 -25.839521 8.743032 2.599372 -31.680207 5.269087 2.626992 -14.540419 0.000005 0.000005 -0.000000 -4.973182 10.111818 -16.039296 4.008399 4.056875 -38.527106 2.107917 3.146879 -20.862360 0.000002 0.000000 -0.000000 -1.974439 5.670109 -18.351325 0.266021 5.084584 -31.705373 -0.641364 1.126890 -16.426337 0.000001 -0.000001 0.000009 2.368834 3.636396 -9.731671 -2.140022 2.442997 -19.927451 -1.876218 4.855366 -15.709025 0.000001 0.000001 0.000001 0.587661 -5.690840 10.530611 7.766609 -13.063973 66.597425 21.851146 10.060845 -5.783545 0.125392 -5.817331 2.406295 15.588599 -0.903779 -16.803937 -6.497753 -24.498671 7.035869 -11.478375 5.615492 5.125850 0.000000 -0.000000 -0.000003 2.247947 -2.298814 4.747583 -2.237945 -2.313559 15.594830 -1.970999 -4.704986 11.374290 -0.000001 -0.000003 0.000001 -1.992223 -5.682321 8.742424 0.163029 -4.963552 22.741204 -0.723058 -0.986081 7.469353 0.000001 0.000001 -0.000004 -4.984342 -10.118312 7.760552 3.895224 -3.932688 30.894141 2.017864 -3.008630 13.232435 -0.000001 -0.000001 -0.000003 -6.470303 -11.329787 16.980330 10.595048 -2.437058 29.181894 6.354005 -2.923566 9.640226 0.000003 -0.000001 -0.000001 -17.424571 1.870925 4.993966 63.083771 -16.301558 1.658484 38.928854 -3.283698 -1.617264 -35.440264 9.940531 6.115218 -0.000002 0.000000 0.000000 -24.401834 -16.902394 18.814810 35.648065 -6.811556 -2.139301 17.983429 4.674514 -15.637011 -28.930345 4.022321 -6.760767 0.000000 0.000000 -0.000001 
